<?xml version="1.0" standalone="no"?>
<!DOCTYPE svg PUBLIC "-//W3C//DTD SVG 20010904//EN"
 "http://www.w3.org/TR/2001/REC-SVG-20010904/DTD/svg10.dtd">
<svg version="1.0" xmlns="http://www.w3.org/2000/svg"
 width="184.000000pt" height="184.000000pt" viewBox="0 0 184.000000 184.000000"
 preserveAspectRatio="xMidYMid meet">
<metadata>
Created by potrace 1.11, written by Peter Selinger 2001-2013
</metadata>
<g transform="translate(0.000000,184.000000) scale(0.100000,-0.100000)"
fill="#000000" stroke="none">
<path d="M983 1720 c-26 -11 -29 -34 -24 -216 l3 -111 -38 -6 c-79 -13 -90
-10 -102 31 -6 20 -17 64 -23 97 -18 97 -78 195 -120 195 -29 0 -51 -63 -44
-128 3 -31 10 -66 15 -77 16 -37 31 -120 23 -122 -4 -2 -44 -26 -87 -54 -114
-74 -188 -151 -231 -240 -20 -41 -42 -83 -48 -94 -6 -11 -13 -66 -15 -122 -4
-91 -1 -113 24 -194 26 -86 32 -96 99 -164 68 -70 166 -135 203 -135 39 0 52
-21 41 -70 -27 -130 -44 -300 -29 -300 4 0 10 17 13 38 2 20 12 91 21 157 24
179 24 179 1 183 -11 2 -39 12 -62 23 -24 10 -45 19 -48 19 -3 0 -30 18 -59
39 -58 43 -126 117 -126 137 0 7 -5 14 -12 16 -6 2 -22 56 -34 119 l-23 114
21 90 c11 49 26 97 32 105 7 8 18 29 26 45 19 37 23 44 85 111 27 30 56 54 62
54 7 0 13 4 13 9 0 10 89 66 122 76 38 12 48 25 42 54 -4 14 -10 31 -14 36
-11 15 -30 134 -30 189 0 63 22 72 61 25 16 -19 29 -38 29 -44 0 -5 7 -23 16
-40 9 -16 21 -67 27 -112 6 -46 16 -84 22 -85 5 -2 48 -2 94 0 l84 4 -8 61
c-15 112 -12 244 6 262 16 16 49 11 49 -7 0 -5 10 -28 21 -51 17 -33 23 -67
26 -155 6 -124 6 -124 78 -138 81 -15 220 -100 274 -168 17 -21 42 -64 57 -95
14 -31 30 -64 35 -74 17 -32 31 -172 24 -247 -11 -128 -79 -236 -194 -309 -25
-16 -58 -33 -73 -36 -34 -9 -36 -32 -8 -68 11 -14 20 -31 20 -39 0 -7 7 -26
16 -43 15 -29 39 -129 51 -212 5 -40 23 -61 23 -29 0 34 -22 172 -29 181 -5 6
-13 31 -20 57 -6 26 -20 62 -31 81 l-21 35 30 21 c16 12 32 21 35 21 27 0 156
122 156 148 0 5 6 15 14 21 18 15 52 120 60 186 8 64 -22 228 -52 280 -6 11
-19 38 -29 60 -9 21 -24 47 -33 56 -8 9 -25 29 -38 44 -25 30 -96 85 -110 85
-4 0 -13 5 -19 11 -13 13 -115 56 -154 64 -27 6 -28 8 -32 88 -4 85 -33 207
-48 207 -5 0 -9 6 -9 14 0 8 -10 22 -22 30 -25 18 -25 18 -55 6z"/>
<path d="M965 921 c-3 -5 -2 -11 2 -13 20 -8 403 4 403 12 0 13 -397 13 -405
1z"/>
<path d="M500 904 c0 -15 19 -16 182 -12 125 3 183 9 186 16 3 9 -46 12 -182
12 -165 0 -186 -2 -186 -16z"/>
<path d="M930 414 c0 -9 14 -33 30 -54 28 -36 30 -41 21 -87 -5 -26 -12 -96
-15 -155 l-5 -108 60 0 c41 0 59 4 59 13 0 6 -10 62 -21 122 -36 189 -36 187
0 221 17 16 31 34 31 40 0 6 -27 14 -61 18 -89 9 -99 8 -99 -10z"/>
<path d="M1220 207 c0 -7 4 -17 10 -23 8 -8 29 -122 30 -161 0 -7 7 -13 16
-13 12 0 15 6 10 23 -4 12 -14 59 -22 105 -11 56 -21 82 -30 82 -8 0 -14 -6
-14 -13z"/>
<path d="M736 99 c-6 -73 -4 -100 8 -88 9 10 17 169 8 169 -5 0 -12 -37 -16
-81z"/>
</g>
</svg>
