<?xml version="1.0" standalone="no"?>
<!DOCTYPE svg PUBLIC "-//W3C//DTD SVG 20010904//EN"
 "http://www.w3.org/TR/2001/REC-SVG-20010904/DTD/svg10.dtd">
<svg version="1.0" xmlns="http://www.w3.org/2000/svg"
 width="674.000000pt" height="674.000000pt" viewBox="0 0 674.000000 674.000000"
 preserveAspectRatio="xMidYMid meet">
<metadata>
Created by potrace 1.11, written by Peter Selinger 2001-2013
</metadata>
<g transform="translate(0.000000,674.000000) scale(0.100000,-0.100000)"
fill="#000000" stroke="none">
<path d="M2553 5276 c-23 -32 -43 -48 -79 -61 -91 -31 -115 -45 -131 -73 -9
-16 -41 -39 -77 -57 -56 -27 -64 -36 -93 -95 -23 -45 -33 -79 -33 -112 0 -35
-8 -61 -35 -106 -45 -74 -55 -111 -45 -156 6 -26 4 -38 -7 -48 -32 -26 -55
-89 -49 -132 10 -65 10 -87 -5 -148 -11 -48 -11 -67 0 -110 19 -75 18 -107 -8
-248 -19 -103 -24 -172 -28 -390 -4 -196 -2 -277 8 -310 7 -25 12 -67 12 -95
0 -67 -13 -165 -21 -165 -4 0 -18 23 -32 52 -29 61 -66 108 -86 108 -7 0 -17
-12 -20 -26 -6 -23 0 -33 44 -73 62 -57 66 -73 87 -306 8 -99 17 -199 20 -222
7 -61 -16 -75 -57 -37 l-31 29 22 -33 c13 -19 35 -35 51 -38 25 -5 28 -12 40
-77 50 -282 195 -472 560 -738 217 -158 325 -189 668 -192 188 -1 201 0 292
27 103 30 282 114 423 198 312 188 464 345 583 604 l49 106 62 -7 c49 -5 67
-3 88 11 14 9 24 19 21 21 -2 3 -16 -3 -31 -13 -25 -16 -28 -16 -62 0 -34 16
-35 19 -30 59 14 111 40 231 69 317 51 155 62 176 118 216 57 41 79 72 60 84
-37 23 -114 -44 -167 -145 -17 -34 -30 -50 -35 -42 -14 22 -8 210 8 252 28 71
41 184 54 449 23 473 1 600 -135 759 l-55 66 0 70 c0 153 -78 262 -251 351
-54 28 -127 72 -162 98 -135 102 -412 232 -495 232 -19 0 -47 9 -62 20 -96 68
-240 107 -331 90 -44 -8 -56 -6 -146 32 -120 50 -165 53 -219 16 -50 -35 -66
-35 -159 2 -105 42 -124 40 -162 -14z m1386 -772 c160 -25 307 -113 401 -239
83 -111 120 -217 150 -428 11 -78 29 -183 40 -233 10 -49 20 -108 21 -130 2
-50 -9 -169 -25 -259 -8 -42 -11 -131 -10 -220 4 -170 -6 -281 -41 -469 -34
-186 -68 -260 -194 -426 -57 -76 -227 -231 -356 -326 -22 -16 -49 -37 -59 -46
-11 -10 -23 -18 -28 -18 -12 0 -128 -81 -128 -89 0 -16 -138 -101 -200 -123
-60 -21 -80 -23 -270 -22 -188 1 -335 13 -385 33 -101 39 -113 48 -284 209
-218 206 -277 267 -322 332 -13 19 -33 46 -45 60 -21 24 -42 58 -84 140 -25
48 -66 164 -81 229 -8 40 -10 112 -6 259 4 112 9 208 12 212 9 15 29 505 30
735 0 148 5 238 14 275 69 281 172 426 369 518 l57 27 515 1 c283 1 551 5 595
10 97 11 190 8 314 -12z"/>
<path d="M2520 3920 c-99 -25 -216 -96 -305 -186 -37 -37 -55 -63 -55 -79 0
-14 6 -25 13 -25 6 0 46 25 87 57 172 130 348 172 499 118 49 -17 69 -11 82
23 13 33 -8 55 -70 77 -54 19 -200 28 -251 15z"/>
<path d="M3632 3899 c-79 -13 -112 -33 -112 -69 0 -46 28 -55 108 -34 87 21
191 14 291 -21 95 -34 135 -54 248 -127 88 -57 122 -67 130 -41 7 21 -106 121
-217 190 -161 100 -287 129 -448 102z"/>
<path d="M2377 3329 c-82 -19 -197 -101 -197 -140 0 -23 23 -25 41 -2 20 23
112 81 142 89 l26 6 -16 -33 c-21 -42 -29 -139 -14 -167 14 -26 132 -63 222
-70 l67 -5 40 42 c36 37 41 40 46 23 4 -11 4 -27 0 -36 -4 -10 -1 -16 8 -16
18 0 47 63 50 108 1 17 5 32 9 32 4 0 22 -17 41 -37 33 -38 55 -49 50 -26 -3
14 -71 83 -127 127 -118 95 -264 134 -388 105z m148 -59 c24 -26 10 -73 -22
-78 -53 -8 -84 46 -47 82 21 22 47 20 69 -4z"/>
<path d="M3768 3290 c-126 -32 -278 -155 -278 -226 0 -11 9 -5 28 19 29 36 85
87 96 87 3 0 6 -20 6 -44 0 -49 16 -103 38 -128 13 -15 33 -18 121 -18 135 0
171 10 204 57 l26 36 7 -26 c6 -28 19 -33 44 -17 17 10 21 126 6 174 l-9 29
43 -24 c23 -13 60 -39 82 -58 31 -26 42 -31 51 -21 9 9 -1 24 -46 65 -81 74
-145 97 -277 101 -58 2 -122 -1 -142 -6z m37 -60 c16 -52 -36 -90 -75 -55 -28
26 -25 52 8 63 42 16 60 14 67 -8z"/>
<path d="M2921 2699 c-13 -23 -25 -64 -28 -97 -6 -77 17 -119 83 -152 43 -21
62 -24 159 -25 92 0 117 3 150 21 70 36 107 149 70 214 l-14 25 -1 -28 c0 -49
-39 -116 -80 -137 -51 -26 -127 -34 -191 -21 -119 26 -170 96 -136 189 9 26
15 48 13 49 -1 2 -13 -15 -25 -38z"/>
<path d="M2660 2261 c0 -38 242 -89 462 -98 192 -8 432 20 534 63 44 19 57 39
18 31 -103 -23 -221 -29 -488 -24 -160 3 -313 8 -341 11 -27 3 -73 8 -102 11
-28 3 -58 8 -67 11 -9 3 -16 1 -16 -5z"/>
</g>
</svg>
